HIERARCHY
ROOT root
{
	OFFSET 0.000000 0.000000 0.000000
	CHANNELS 6 Xposition Yposition Zposition Zrotation Yrotation Xrotation
	JOINT lhip
	{
		OFFSET 0.058581 -0.082280 -0.017664
		CHANNELS 3 Zrotation Yrotation Xrotation
		JOINT lknee
		{
			OFFSET 0.043451 -0.386469 0.008037
			CHANNELS 3 Zrotation Yrotation Xrotation
			JOINT lankle
			{
				OFFSET -0.014790 -0.426874 -0.037428
				CHANNELS 3 Zrotation Yrotation Xrotation
				JOINT ltoe
				{
					OFFSET 0.041054 -0.060286 0.122042
					CHANNELS 3 Zrotation Yrotation Xrotation
					End Site
					{
						OFFSET 0.000000 0.000000 0.000000
					}
				}
			}
		}
	}
	JOINT rhip
	{
		OFFSET -0.060310 -0.090513 -0.013543
		CHANNELS 3 Zrotation Yrotation Xrotation
		JOINT rknee
		{
			OFFSET -0.043257 -0.383688 -0.004843
			CHANNELS 3 Zrotation Yrotation Xrotation
			JOINT rankle
			{
				OFFSET 0.019056 -0.420046 -0.034562
				CHANNELS 3 Zrotation Yrotation Xrotation
				JOINT rtoe
				{
					OFFSET -0.034840 -0.062106 0.130323
					CHANNELS 3 Zrotation Yrotation Xrotation
					End Site
					{
						OFFSET 0.000000 0.000000 0.000000
					}
				}
			}
		}
	}
	JOINT lowerback
	{
		OFFSET 0.004439 0.124404 -0.038385
		CHANNELS 3 Zrotation Yrotation Xrotation
		JOINT upperback
		{
			OFFSET 0.004488 0.137956 0.026820
			CHANNELS 3 Zrotation Yrotation Xrotation
			JOINT chest
			{
				OFFSET -0.002265 0.056032 0.002855
				CHANNELS 3 Zrotation Yrotation Xrotation
				JOINT lowerneck
				{
					OFFSET -0.013390 0.211636 -0.033468
					CHANNELS 3 Zrotation Yrotation Xrotation
					JOINT upperneck
					{
						OFFSET 0.010113 0.088937 0.050410
						CHANNELS 3 Zrotation Yrotation Xrotation
						End Site
						{
							OFFSET 0.000000 0.000000 0.000000
						}
					}
				}
				JOINT lclavicle
				{
					OFFSET 0.071702 0.114000 -0.018898
					CHANNELS 3 Zrotation Yrotation Xrotation
					JOINT lshoulder
					{
						OFFSET 0.122921 0.045205 -0.019046
						CHANNELS 3 Zrotation Yrotation Xrotation
						JOINT lelbow
						{
							OFFSET 0.255332 -0.015649 -0.022946
							CHANNELS 3 Zrotation Yrotation Xrotation
							JOINT lwrist
							{
								OFFSET 0.265709 0.012698 -0.007375
								CHANNELS 3 Zrotation Yrotation Xrotation
								End Site
								{
									OFFSET 0.000000 0.000000 0.000000
								}
							}
						}
					}
				}
				JOINT rclavicle
				{
					OFFSET -0.082954 0.112472 -0.023707
					CHANNELS 3 Zrotation Yrotation Xrotation
					JOINT rshoulder
					{
						OFFSET -0.113228 0.046853 -0.008472
						CHANNELS 3 Zrotation Yrotation Xrotation
						JOINT relbow
						{
							OFFSET -0.260127 -0.014369 -0.031269
							CHANNELS 3 Zrotation Yrotation Xrotation
							JOINT rwrist
							{
								OFFSET -0.269108 0.006794 -0.006027
								CHANNELS 3 Zrotation Yrotation Xrotation
								End Site
								{
									OFFSET 0.000000 0.000000 0.000000
								}
							}
						}
					}
				}
			}
		}
	}
}
MOTION
Frames: 7
Frame Time: 0.033333
0.498473 0.659149 0.982844 -7.504018 1.023753 86.322356 -1.096641 3.504220 4.001215 -2.666299 -5.175250 2.946895 7.135869 12.390555 -12.048211 0.000000 -0.000000 0.000000 -4.923641 0.181629 -11.556853 -0.952313 6.716465 31.961707 6.803221 -4.628200 -13.280363 0.000000 -0.000000 0.000000 -1.201579 0.754722 11.011435 -0.891938 1.304777 0.802121 -3.141561 0.441008 4.097169 5.703027 0.505688 -6.918434 -0.635643 -7.756486 12.786587 -32.054578 3.721305 -1.469200 -43.950234 -3.691356 6.548957 6.400330 -21.723085 2.953600 0.887561 -0.135319 4.996476 31.532637 -0.821201 2.472188 50.045252 5.581033 14.877302 -17.704994 35.440573 -7.178536 2.448449 4.327044 3.773487 
0.499751 0.659535 0.982235 -8.051501 0.978132 85.898358 -1.181971 3.907026 4.511735 -2.888007 -5.887683 2.931159 7.259491 13.244588 -11.976434 0.000000 -0.000000 0.000000 -4.957984 1.356426 -13.756606 0.565610 8.638244 36.535997 7.529427 -5.781534 -12.188105 0.000000 -0.000000 0.000000 -1.798403 -0.209477 11.765738 -0.785280 0.826592 1.279134 -3.319510 -0.036034 4.382790 6.339662 -0.427153 -7.198619 -0.272575 -8.582154 12.086288 -30.988244 3.630166 -0.543459 -44.574681 -4.314071 6.507722 6.551135 -21.929044 3.225459 0.704369 -0.178911 3.918813 31.269202 0.121349 0.835897 50.800426 4.203189 15.467446 -20.108755 36.558897 -8.914825 2.443520 4.050974 2.202294 
0.501153 0.660158 0.981562 -8.551250 1.073429 85.146830 -1.098980 4.393188 5.146729 -2.969157 -5.990468 3.274162 7.420424 13.406954 -12.270176 0.000000 -0.000000 0.000000 -5.021653 2.440982 -15.240621 1.390488 9.129107 40.191153 7.649023 -4.967250 -11.055924 0.000000 -0.000000 0.000000 -2.326956 -1.044844 13.189492 -0.513456 0.128630 1.522763 -3.330084 -0.489920 4.464371 6.791074 -1.123461 -7.823913 0.070580 -9.671357 11.877460 -30.748021 2.956217 -0.202196 -44.387225 -4.434589 6.481683 6.409326 -21.518349 3.015310 0.673054 -0.130165 4.247059 31.326421 0.461417 0.393229 50.480252 4.077613 14.993426 -21.873121 37.578227 -11.227835 2.489594 4.322453 1.180331 
0.500758 0.660664 0.980874 -9.444257 1.301311 84.676252 -0.572752 5.057214 5.645132 -3.361920 -5.851552 3.362060 7.463496 13.599677 -12.396514 0.000000 -0.000000 0.000000 -4.567297 3.275189 -17.573346 2.697634 10.672160 44.178780 8.063494 -4.223294 -10.434681 0.000000 -0.000000 0.000000 -2.829376 -1.403727 14.526596 -0.114150 -0.618656 1.680341 -3.331894 -1.358941 4.408915 7.529857 -1.452848 -8.657299 0.425285 -10.683476 11.579395 -30.620432 1.986720 0.113849 -43.565971 -4.641098 6.501763 6.004528 -20.621859 2.957430 0.975739 -0.213185 5.064125 31.552746 0.302249 -0.312815 49.708729 3.844392 14.490267 -23.716449 38.293198 -13.548700 1.793342 4.428496 0.450265 
0.500705 0.660402 0.981429 -9.812038 1.371875 84.124936 -0.243485 5.671830 6.287461 -3.569596 -4.795714 3.527158 5.816065 12.640893 -13.093440 0.000000 -0.000000 0.000000 -4.173510 3.605280 -17.980525 2.664149 11.516119 45.076830 8.540978 -2.759227 -10.783305 0.000000 -0.000000 0.000000 -2.978535 -1.292612 15.611490 0.119172 -1.868315 2.810008 -3.143321 -1.270922 2.635108 6.517834 -1.453908 -7.958009 2.565562 -11.406140 11.196989 -31.250071 -0.015327 0.453502 -42.543187 -3.405466 6.358428 5.497185 -19.365362 2.004106 3.198609 -3.015596 4.880606 32.319352 0.908719 0.732155 48.802007 2.571346 12.211269 -26.877519 39.408722 -14.586888 4.333949 5.567795 -0.102201 
0.501532 0.659493 0.981358 -9.760145 1.268116 84.296903 -0.746053 5.535250 6.197813 -3.145186 -4.986084 3.661174 5.853999 12.885999 -13.413413 0.000000 -0.000000 0.000000 -4.609022 4.435837 -18.950313 3.148345 11.669871 44.860711 8.807761 -2.711960 -11.015515 0.000000 -0.000000 0.000000 -3.370989 -2.100828 15.751450 0.424526 -2.542051 2.879857 -3.145304 -1.876566 2.666584 6.807166 -1.223876 -8.181607 2.544287 -11.709739 11.166884 -31.446884 -0.749674 0.266242 -41.824402 -4.060954 6.193183 4.997190 -17.592471 1.777544 3.562223 -3.041813 6.632300 32.224212 0.331398 0.452810 48.230950 2.579484 11.845382 -28.708958 39.459680 -17.079009 2.869807 5.352930 -0.948733 
0.501874 0.657365 0.982130 -10.138169 1.269091 83.793806 -0.858027 5.856027 7.007439 -2.865384 -5.187694 3.655609 5.584478 13.021292 -13.522296 0.000000 -0.000000 0.000000 -4.745983 4.747902 -18.820596 2.899504 11.446523 43.091370 8.268574 -3.200922 -11.338063 0.000000 -0.000000 0.000000 -3.326216 -2.366193 16.769364 0.451223 -3.108024 2.665206 -3.047403 -2.168228 2.735514 6.775880 -1.568145 -8.664281 2.761712 -12.054065 11.074178 -31.372050 -1.902102 0.316782 -41.559161 -5.237392 5.645008 5.102307 -15.537957 1.152137 3.678607 -3.155155 6.737699 31.819223 0.153569 -0.102223 47.685850 1.992779 10.940582 -30.586729 39.306392 -19.258265 2.309751 5.670154 -2.504055 
